<svg width="3005" height="1229" viewBox="0 0 3005 1229" fill="none" xmlns="http://www.w3.org/2000/svg">
<g filter="url(#filter0_f_1_4)">
<path d="M1404.44 1089.49L1374.42 808.229C1986.6 742.898 2454.05 403.95 2416.56 52.588L2906.6 0.291114C2960.64 506.709 2286.76 995.331 1404.44 1089.49Z" fill="url(#paint0_linear_1_4)"/>
</g>
<g filter="url(#filter1_f_1_4)">
<path d="M1388.79 942.874L1363.57 706.469C1877.98 651.57 2270.89 366.676 2239.38 71.422L2651.27 27.4659C2696.69 453.111 2130.26 863.745 1388.79 942.874Z" fill="url(#paint1_linear_1_4)"/>
</g>
<g filter="url(#filter2_f_1_4)">
<path d="M1698.76 1058.01L1668.74 776.746C1056.57 842.077 528.108 609.412 490.611 258.049L0.570313 310.346C54.6149 816.764 816.431 1152.17 1698.76 1058.01Z" fill="url(#paint2_linear_1_4)"/>
</g>
<g filter="url(#filter3_f_1_4)">
<path d="M1404.44 1089.49L1374.42 808.229C1986.6 742.898 2454.05 403.95 2416.56 52.588L2906.6 0.291114C2960.64 506.709 2286.76 995.331 1404.44 1089.49Z" fill="url(#paint3_linear_1_4)"/>
</g>
<g filter="url(#filter4_f_1_4)">
<path d="M1388.79 942.874L1363.57 706.469C1877.98 651.57 2270.89 366.676 2239.38 71.422L2651.27 27.4659C2696.69 453.111 2130.26 863.745 1388.79 942.874Z" fill="url(#paint4_linear_1_4)"/>
</g>
<g filter="url(#filter5_f_1_4)">
<path d="M1698.76 1058.01L1668.74 776.746C1056.57 842.077 528.108 609.412 490.611 258.049L0.570313 310.346C54.6149 816.764 816.431 1152.17 1698.76 1058.01Z" fill="url(#paint5_linear_1_4)"/>
</g>
<defs>
<filter id="filter0_f_1_4" x="974.423" y="-399.709" width="2335.21" height="1889.2" filterUnits="userSpaceOnUse" color-interpolation-filters="sRGB">
<feFlood flood-opacity="0" result="BackgroundImageFix"/>
<feBlend mode="normal" in="SourceGraphic" in2="BackgroundImageFix" result="shape"/>
<feGaussianBlur stdDeviation="200" result="effect1_foregroundBlur_1_4"/>
</filter>
<filter id="filter1_f_1_4" x="963.565" y="-372.534" width="2090.25" height="1715.41" filterUnits="userSpaceOnUse" color-interpolation-filters="sRGB">
<feFlood flood-opacity="0" result="BackgroundImageFix"/>
<feBlend mode="normal" in="SourceGraphic" in2="BackgroundImageFix" result="shape"/>
<feGaussianBlur stdDeviation="200" result="effect1_foregroundBlur_1_4"/>
</filter>
<filter id="filter2_f_1_4" x="-399.43" y="-141.951" width="2498.19" height="1615.8" filterUnits="userSpaceOnUse" color-interpolation-filters="sRGB">
<feFlood flood-opacity="0" result="BackgroundImageFix"/>
<feBlend mode="normal" in="SourceGraphic" in2="BackgroundImageFix" result="shape"/>
<feGaussianBlur stdDeviation="200" result="effect1_foregroundBlur_1_4"/>
</filter>
<filter id="filter3_f_1_4" x="974.423" y="-399.709" width="2335.21" height="1889.2" filterUnits="userSpaceOnUse" color-interpolation-filters="sRGB">
<feFlood flood-opacity="0" result="BackgroundImageFix"/>
<feBlend mode="normal" in="SourceGraphic" in2="BackgroundImageFix" result="shape"/>
<feGaussianBlur stdDeviation="200" result="effect1_foregroundBlur_1_4"/>
</filter>
<filter id="filter4_f_1_4" x="963.565" y="-372.534" width="2090.25" height="1715.41" filterUnits="userSpaceOnUse" color-interpolation-filters="sRGB">
<feFlood flood-opacity="0" result="BackgroundImageFix"/>
<feBlend mode="normal" in="SourceGraphic" in2="BackgroundImageFix" result="shape"/>
<feGaussianBlur stdDeviation="200" result="effect1_foregroundBlur_1_4"/>
</filter>
<filter id="filter5_f_1_4" x="-399.43" y="-141.951" width="2498.19" height="1615.8" filterUnits="userSpaceOnUse" color-interpolation-filters="sRGB">
<feFlood flood-opacity="0" result="BackgroundImageFix"/>
<feBlend mode="normal" in="SourceGraphic" in2="BackgroundImageFix" result="shape"/>
<feGaussianBlur stdDeviation="200" result="effect1_foregroundBlur_1_4"/>
</filter>
<linearGradient id="paint0_linear_1_4" x1="1355.41" y1="630.25" x2="2955.62" y2="459.476" gradientUnits="userSpaceOnUse">
<stop stop-color="#9403FD"/>
<stop offset="1" stop-color="#00ADFE"/>
</linearGradient>
<linearGradient id="paint1_linear_1_4" x1="1347.59" y1="556.955" x2="2692.4" y2="413.438" gradientUnits="userSpaceOnUse">
<stop stop-color="#9403FD"/>
<stop offset="1" stop-color="#00ADFE"/>
</linearGradient>
<linearGradient id="paint2_linear_1_4" x1="1649.77" y1="598.754" x2="49.5574" y2="769.528" gradientUnits="userSpaceOnUse">
<stop stop-color="#FF12DC"/>
<stop offset="1" stop-color="#FFB912"/>
</linearGradient>
<linearGradient id="paint3_linear_1_4" x1="1355.41" y1="630.25" x2="2955.62" y2="459.476" gradientUnits="userSpaceOnUse">
<stop stop-color="#9403FD"/>
<stop offset="1" stop-color="#00ADFE"/>
</linearGradient>
<linearGradient id="paint4_linear_1_4" x1="1347.59" y1="556.955" x2="2692.4" y2="413.438" gradientUnits="userSpaceOnUse">
<stop stop-color="#9403FD"/>
<stop offset="1" stop-color="#00ADFE"/>
</linearGradient>
<linearGradient id="paint5_linear_1_4" x1="1649.77" y1="598.754" x2="49.5574" y2="769.528" gradientUnits="userSpaceOnUse">
<stop stop-color="#FF12DC"/>
<stop offset="1" stop-color="#FFB912"/>
</linearGradient>
</defs>
</svg>
