<svg width="89" height="13" viewBox="0 0 89 13" fill="none" xmlns="http://www.w3.org/2000/svg">
<path d="M6.35713 0L7.78439 4.39267L12.4031 4.39267L8.66649 7.10748L10.0938 11.5002L6.35713 8.78533L2.6205 11.5002L4.04777 7.10748L0.31114 4.39267L4.92986 4.39267L6.35713 0Z" fill="#F7C33D"/>
<path d="M25.4286 0L26.8558 4.39267L31.4746 4.39267L27.7379 7.10748L29.1652 11.5002L25.4286 8.78533L21.6919 11.5002L23.1192 7.10748L19.3826 4.39267L24.0013 4.39267L25.4286 0Z" fill="#F7C33D"/>
<path d="M44.5 0L45.9273 4.39267L50.546 4.39267L46.8094 7.10748L48.2366 11.5002L44.5 8.78533L40.7634 11.5002L42.1906 7.10748L38.454 4.39267L43.0727 4.39267L44.5 0Z" fill="#F7C33D"/>
<path d="M63.5711 0L64.9984 4.39267L69.6171 4.39267L65.8805 7.10748L67.3077 11.5002L63.5711 8.78533L59.8345 11.5002L61.2618 7.10748L57.5251 4.39267L62.1439 4.39267L63.5711 0Z" fill="#F7C33D"/>
<path d="M82.6429 0L84.0702 4.39267L88.6889 4.39267L84.9523 7.10748L86.3795 11.5002L82.6429 8.78533L78.9063 11.5002L80.3335 7.10748L76.5969 4.39267L81.2156 4.39267L82.6429 0Z" fill="#F7C33D"/>
</svg>
